<svg width="46" height="30" viewBox="0 0 46 30" fill="none" xmlns="http://www.w3.org/2000/svg">
<path d="M30.4956 21.5351C30.4544 20.5625 30.5842 17.894 30.5842 17.894C29.3376 18.4009 27.8148 18.5081 27.8148 18.5081C28.1857 19.9299 28.7441 23.06 28.4062 24.0058C27.4047 24.9722 26.0056 25.3184 25.5048 25.2834C25.0041 25.2484 24.9526 25.9057 24.9526 25.9057L23.5184 25.473C23.5184 25.473 22.62 26.8886 23.1042 27.9601C24.796 27.2348 25.5213 26.8556 26.2116 26.8556C26.9019 26.8556 27.9034 25.2319 28.7668 25.0938C30.5286 24.7147 30.5636 23.1939 30.4936 21.5372L30.4956 21.5351Z" fill="white"></path>
<path d="M5.56233 13.4781C6.86463 12.6559 8.16694 11.0342 9.733 10.4202C10.3079 9.55059 11.0147 8.98598 11.6473 8.62331C10.6706 8.16173 9.05506 7.7084 7.18196 8.42549C5.04099 9.25592 2.72899 11.7204 0.0398875 9.13023C-0.213568 11.0837 0.763165 12.2273 2.33541 12.4128C0.884741 12.8929 0.202671 12.4684 0.202671 12.4684C0.202671 12.4684 2.32922 15.4955 5.56233 13.4802V13.4781Z" fill="white"></path>
<path d="M40.3987 1.64437L40.4791 0C40.4791 0 39.0305 0.80158 38.2269 1.24461C37.9178 1.41564 37.584 1.52898 37.2357 1.58255C31.8369 2.42328 29.935 6.95457 26.3495 8.46912C26.1352 8.55978 25.9188 8.64221 25.6983 8.71227C25.6922 8.71433 25.686 8.7164 25.6777 8.71846C24.5362 9.08112 23.3101 9.18003 22.0943 8.98221C19.4279 8.54742 16.541 7.84682 14.1053 8.17651C11.4059 8.89979 10.4004 10.4638 10.0583 11.2242C9.44836 12.7222 9.49163 14.4037 9.87696 15.3866C10.6147 17.2741 9.7389 18.5187 6.05453 19.3924C6.05453 21.6488 5.25501 23.9587 5.04895 24.4286C4.60386 25.4383 3.82082 25.2487 3.99803 26.3964C3.82288 27.2001 2.44227 26.7303 2.44227 26.7303C2.44227 26.7303 1.91888 27.8574 2.62154 29.1103C3.42724 28.7414 4.80786 27.1754 5.36217 26.7158C5.91647 26.2563 6.62944 23.1592 7.28471 22.3638C8.49429 20.8101 11.6017 19.4625 14.503 18.2426C15.5622 20.1775 14.0188 22.71 14.503 23.0088C16.7594 23.9752 18.9004 26.4851 19.0158 27.0373C19.1312 27.5895 19.8668 27.2681 20.1203 27.4515C20.3737 27.6349 19.9822 28.694 19.9822 28.694H22.492C22.354 27.7729 20.9734 26.7838 20.6952 26.2295C20.4191 25.6773 18.3935 24.272 17.7938 23.4889C17.2766 22.811 17.0005 22.1145 17.7547 18.391C17.8309 18.018 17.9175 17.6141 18.0143 17.1773C18.173 16.2912 18.3337 15.0466 18.274 13.8803C18.9024 15.3536 18.8324 16.9382 18.8324 16.9382C23.376 18.6011 29.0221 17.983 31.5237 16.9836C32.4674 17.3978 35.7953 21.5849 36.7267 23.017C37.8827 23.6208 39.0573 25.8318 39.0573 26.5407C39.0573 27.2495 40.0072 27.0579 40.2998 27.3876C40.5924 27.7152 40.2998 28.694 40.2998 28.694H42.82C42.82 28.694 42.2677 27.7503 41.7381 27.266C41.2086 26.7818 40.8624 26.3676 40.4729 25.6773C40.0814 24.987 38.9996 24.2493 38.8141 23.3756C38.6307 22.4998 38.1012 21.6715 37.3635 20.7504C36.6258 19.8293 36.3043 18.7928 35.0618 16.4458C35.6202 15.8399 35.6799 14.7004 35.5934 13.6866C35.3812 11.2036 36.1662 8.72257 37.8209 6.85772C38.1073 6.5342 38.3855 6.26633 38.639 6.07057C38.639 6.07057 38.9707 7.74173 41.2539 7.39142C42.7437 7.16269 44.3695 9.19651 44.3695 9.19651C44.3695 9.19651 45.9047 8.54948 45.6986 7.05966L40.3967 1.64231L40.3987 1.64437Z" fill="white"></path>
<path d="M30.1577 4.98035C34.0543 0.615978 37.6089 1.20531 37.6089 1.20531C36.354 0.0719751 31.934 -0.622452 29.0017 3.83877C27.9508 5.43781 26.3662 7.98061 26.3662 7.98061C27.3244 7.45927 29.0718 6.19406 30.1557 4.98035H30.1577Z" fill="white"></path>
</svg>