<svg width="140" height="114" viewBox="0 0 140 114" fill="none" xmlns="http://www.w3.org/2000/svg">
<path d="M22.5439 95.7715H22.2217C21.7877 94.3676 21.3918 93.3597 21.0703 92.4971C20.4542 91.2059 19.8429 90.3058 19.125 89.7646C18.2999 89.1914 17.3248 88.9024 15.8516 88.9023H13.2256V110.667C13.2256 111.385 13.3327 111.852 13.6221 112.248C13.9114 112.575 14.3456 112.789 15.0635 112.934C15.4599 113.041 15.8939 113.04 16.7188 113.147V113.507H6.32422V113.147C7.19224 113.04 7.62107 113.041 8.01758 112.934C8.7406 112.789 9.1316 112.569 9.4209 112.248C9.71024 111.927 9.85547 111.385 9.85547 110.667V88.9023H7.19238C5.71911 88.9023 4.74402 89.1915 3.91895 89.7646C3.19559 90.3058 2.54696 91.2063 1.97363 92.5352C1.64679 93.3603 1.25529 94.3677 0.821289 95.7715H0.5L1.04102 88.2539H22.002L22.5439 95.7715ZM41.8008 88.2578C44.2868 88.2578 46.4086 88.724 47.9893 89.624C49.9717 90.7707 51.0488 92.5714 51.0488 94.8379C51.0488 96.5632 50.3687 98.0371 48.9648 99.2266C47.8128 100.234 46.1942 100.957 44.501 101.278L50.583 109.514H50.5771C52.34 111.85 54.1031 113.109 55.9355 113.146V113.506H49.8916C48.7771 112.643 47.5555 111.169 45.6855 108.469L41.1895 101.776H38.8164V110.591C38.8164 111.346 38.8862 111.85 39.0684 112.172C39.3201 112.568 39.679 112.782 40.3965 112.927C40.718 113.034 41.222 113.034 41.9775 113.142V113.501H32.2627V113.142C33.018 113.034 33.4844 113.034 33.8809 112.927C34.5666 112.782 34.9259 112.568 35.1777 112.172C35.3599 111.85 35.4297 111.416 35.4297 110.591V91.168C35.4297 90.4125 35.3599 89.9084 35.1777 89.5869C34.9259 89.1906 34.5673 88.9757 33.8496 88.8311C33.5281 88.7239 33.024 88.7243 32.2686 88.6172V88.2578H41.8008ZM105.676 111.816L105.665 111.812C105.987 112.674 106.887 113.102 108.29 113.14V113.499H98.7207V113.14C99.551 113.108 100.162 113.033 100.628 112.926C101.458 112.674 101.817 112.315 101.817 111.629C101.817 111.307 101.711 110.841 101.459 110.155L98.8711 103.431H89.6602L87.1797 110.123C87.0029 110.702 86.8574 111.131 86.8574 111.527C86.8574 112.245 87.2545 112.642 88.1172 112.894C88.6583 113.038 89.3065 113.108 90.1689 113.146V113.505H82.9033V113.146C83.7713 113.038 84.2002 112.968 84.5967 112.786C85.1753 112.534 85.5669 112.17 85.749 111.597L93.7695 90.2656L92.8701 87.9297H96.3955L105.676 111.816ZM74.4482 88.6133C73.6929 88.7204 73.2265 88.7201 72.8301 88.8271C72.1442 88.9718 71.785 89.1865 71.5332 89.583C71.3511 89.9044 71.2813 90.3383 71.2812 91.1631V110.587C71.2813 111.342 71.3512 111.846 71.5332 112.167C71.785 112.563 72.1443 112.778 72.8623 112.923C73.1838 113.03 73.6872 113.031 74.4424 113.138V113.496H64.7285V113.138C65.4839 113.031 65.9502 113.03 66.3467 112.923C67.0324 112.778 67.3918 112.563 67.6436 112.167C67.8255 111.846 67.8945 111.412 67.8945 110.587V91.1631C67.8945 90.4081 67.8255 89.9045 67.6436 89.583C67.3917 89.1865 67.0323 88.9718 66.3145 88.8271C65.993 88.72 65.4889 88.7204 64.7334 88.6133V88.2539H74.4482V88.6133ZM126.443 88.2539C128.999 88.2539 131.228 88.6505 133.136 89.4756C135.327 90.4507 137.09 91.8866 138.242 93.7939L138.237 93.7832C139.389 95.621 140 97.7751 140 100.224C140 102.672 139.497 104.902 138.489 106.879C137.444 108.931 135.826 110.618 133.849 111.771C131.941 112.885 129.637 113.496 127.301 113.496H116.762V113.138C117.517 113.031 117.983 113.03 118.38 112.923C119.066 112.778 119.425 112.563 119.677 112.167C119.859 111.846 119.928 111.412 119.928 110.587V91.1631C119.928 90.408 119.859 89.9045 119.677 89.583C119.425 89.1865 119.066 88.9718 118.348 88.8271C118.026 88.72 117.522 88.7204 116.767 88.6133V88.2539H126.443ZM123.314 110.201C123.314 111.316 123.566 111.996 124.14 112.393C124.606 112.714 125.324 112.858 126.514 112.858H127.307C129.289 112.858 131.046 112.21 132.487 111.059C133.816 109.912 134.862 108.326 135.473 106.349L135.478 106.354C136.019 104.736 136.27 102.828 136.271 100.776C136.271 97.3579 135.44 94.4477 133.822 92.3955C132.059 90.0968 129.396 88.9072 125.978 88.9072H123.314V110.201ZM89.8848 102.783H98.624L94.166 91.2734L89.8848 102.783ZM38.8213 101.134H41.1631C43.2153 101.134 44.796 100.63 45.8408 99.5156C46.8803 98.4708 47.4219 96.89 47.4219 94.8379C47.4218 93.0001 46.7784 91.4569 45.5889 90.4121C44.469 89.4048 42.926 88.9014 41.0186 88.9014H38.8213V101.134ZM115.861 4.27539L129.643 18.3574C130.176 22.2192 126.211 23.9027 126.187 23.9131C126.149 23.8661 121.942 18.6276 118.085 19.2197C112.148 20.1306 111.285 15.7852 111.285 15.7852C110.626 16.2942 109.903 16.9909 109.158 17.832C104.856 22.6811 102.814 29.1323 103.366 35.5889C103.591 38.2251 103.435 41.1884 101.983 42.7637C105.214 48.8666 106.051 51.5619 107.969 53.957C109.887 56.3521 111.264 58.506 111.741 60.7832C112.223 63.055 115.037 64.9736 116.055 66.7686C117.067 68.5632 117.967 69.6404 119.344 70.8994C120.713 72.1511 122.14 74.5835 122.157 74.6123H115.604C115.615 74.5763 116.359 72.0619 115.604 71.2158C114.844 70.3586 112.373 70.8565 112.373 69.0137C112.373 67.1705 109.319 61.4207 106.313 59.8506C103.892 56.1268 95.2387 45.24 92.7842 44.1621C86.2794 46.7608 71.5979 48.3679 59.7832 44.0439C59.785 44.0029 59.957 39.9046 58.3311 36.0928C58.4864 39.1255 58.0678 42.362 57.6553 44.666C57.4035 45.8017 57.1787 46.8517 56.9805 47.8213C55.0194 57.5035 55.7371 59.3153 57.082 61.0781C58.6413 63.1142 63.909 66.7681 64.627 68.2041C65.3503 69.6454 68.9395 72.2173 69.2988 74.6123H62.7725C62.7832 74.5831 63.787 71.8565 63.1318 71.3818C62.4728 70.905 60.5598 71.7406 60.2598 70.3047C59.9597 68.8687 54.3926 62.3421 48.5254 59.8291C47.2665 59.0519 51.2794 52.4668 48.5254 47.4355C40.9812 50.6076 32.9012 54.1123 29.7559 58.1523C28.0521 60.2205 26.1981 68.2732 24.7568 69.4688C23.3155 70.6636 19.7249 74.7362 17.6299 75.6953C15.8027 72.4375 17.1641 69.5059 17.1641 69.5059C17.1641 69.5059 20.7531 70.7277 21.209 68.6387C20.7482 65.6542 22.785 66.1469 23.9424 63.5215C24.4782 62.2998 26.5566 56.293 26.5566 50.4258C36.1369 48.1539 38.4142 44.9178 36.4961 40.0098C35.4941 37.4539 35.3818 33.0809 36.9678 29.1855C37.8574 27.2082 40.4725 23.1423 47.4912 21.2617C53.8245 20.4044 61.3312 22.2259 68.2646 23.3564C71.426 23.8708 74.6146 23.6139 77.583 22.6709C77.6043 22.6656 77.6207 22.6596 77.6367 22.6543C78.2098 22.4722 78.7721 22.2581 79.3291 22.0225C88.6523 18.0842 93.5983 6.30137 107.637 4.11523C108.542 3.97592 109.41 3.68104 110.214 3.23633C112.3 2.08646 116.056 0.00773538 116.07 0L115.861 4.27539ZM90.3408 46.5303C90.3408 46.5303 90.0032 53.47 90.1104 55.999L90.1045 56.0039C90.2867 60.3119 90.1955 64.266 85.6143 65.252C83.3694 65.6112 80.7656 69.8326 78.9707 69.833C77.1758 69.833 75.2894 70.8191 70.8906 72.7051C69.6316 69.9188 71.9678 66.2383 71.9678 66.2383L75.6963 67.3633C75.697 67.3547 75.8341 65.6543 77.1328 65.7451C78.4351 65.8361 82.0728 64.9357 84.6768 62.4229C85.5553 59.9633 84.1031 51.8251 83.1387 48.1279C83.1387 48.1279 87.0991 47.8484 90.3408 46.5303ZM29.4873 21.9102C34.3576 20.0456 38.5588 21.2237 41.0986 22.4238C39.4537 23.3669 37.616 24.8356 36.1211 27.0967C32.049 28.6934 28.6626 32.9099 25.2764 35.0479V35.0537C16.9009 40.2743 11.3811 32.4813 11.3398 32.4229C11.3661 32.439 13.1417 33.5165 16.8857 32.2773C12.7975 31.7951 10.257 28.8217 10.916 23.7422C17.9082 30.4772 23.9203 24.0697 29.4873 21.9102ZM86.2256 9.97852C93.8502 -1.62148 105.343 0.183956 108.606 3.13086C108.572 3.12515 99.3447 1.62004 89.2314 12.9473H89.2256C86.4072 16.1032 81.8636 19.3934 79.3721 20.749C79.3721 20.749 83.4929 14.1365 86.2256 9.97852Z" fill="#F4F4ED"/>
</svg>
