<svg width="52" height="35" viewBox="0 0 52 35" fill="none" xmlns="http://www.w3.org/2000/svg">
<path d="M34.6861 25.439C34.6392 24.3328 34.7869 21.2976 34.7869 21.2976C33.3689 21.8742 31.6369 21.996 31.6369 21.996C32.0587 23.6132 32.6939 27.1734 32.3095 28.2492C31.1704 29.3484 29.579 29.7422 29.0095 29.7023C28.44 29.6625 28.3814 30.4101 28.3814 30.4101L26.7501 29.9179C26.7501 29.9179 25.7282 31.5281 26.279 32.7469C28.2033 31.9219 29.0283 31.4906 29.8134 31.4906C30.5986 31.4906 31.7376 29.6437 32.7197 29.4867C34.7236 29.0554 34.7634 27.3258 34.6837 25.4414L34.6861 25.439Z" fill="#0F2C3A"/>
<path d="M6.32664 16.2749C7.80789 15.3397 9.28914 13.4952 11.0704 12.7967C11.7243 11.8077 12.5282 11.1655 13.2478 10.753C12.1368 10.228 10.2993 9.71234 8.16883 10.528C5.73366 11.4725 3.10397 14.2756 0.0453684 11.3295C-0.242914 13.5514 0.868031 14.8522 2.65632 15.0631C1.00631 15.6092 0.23052 15.1264 0.23052 15.1264C0.23052 15.1264 2.64928 18.5694 6.32664 16.2772V16.2749Z" fill="#0F2C3A"/>
<path d="M45.9502 2.81515L46.0416 0.944824C46.0416 0.944824 44.394 1.85655 43.4799 2.36046C43.1283 2.55499 42.7486 2.6839 42.3525 2.74484C36.2119 3.70109 34.0486 8.85501 29.9705 10.5777C29.7267 10.6808 29.4806 10.7745 29.2298 10.8542C29.2228 10.8566 29.2158 10.8589 29.2064 10.8613C27.908 11.2738 26.5134 11.3863 25.1306 11.1613C22.0978 10.6667 18.8142 9.86986 16.0439 10.2449C12.9735 11.0675 11.8298 12.8464 11.4407 13.7113C10.747 15.4152 10.7962 17.3277 11.2345 18.4457C12.0735 20.5926 11.0774 22.0082 6.8868 23.0019C6.8868 25.5683 5.97742 28.1957 5.74305 28.7301C5.23679 29.8785 4.34616 29.6629 4.54772 30.9684C4.3485 31.8824 2.77819 31.3481 2.77819 31.3481C2.77819 31.3481 2.18287 32.6301 2.98209 34.0551C3.8985 33.6356 5.46883 31.8543 6.0993 31.3317C6.72977 30.809 7.5407 27.2863 8.28602 26.3816C9.6618 24.6144 13.1962 23.0816 16.4962 21.6941C17.7009 23.8949 15.9454 26.7754 16.4962 27.1152C19.0626 28.2144 21.4978 31.0691 21.629 31.6973C21.7603 32.3254 22.597 31.9598 22.8853 32.1684C23.1736 32.377 22.7283 33.5817 22.7283 33.5817H25.5829C25.4259 32.534 23.8556 31.409 23.5392 30.7785C23.2251 30.1504 20.9212 28.552 20.2392 27.6613C19.6509 26.8902 19.3368 26.098 20.1946 21.8629C20.2814 21.4386 20.3798 20.9793 20.49 20.4824C20.6704 19.4746 20.8533 18.0589 20.7853 16.7324C21.5001 18.4082 21.4204 20.2105 21.4204 20.2105C26.5884 22.1019 33.0103 21.3988 35.8556 20.2621C36.9291 20.7332 40.7142 25.4957 41.7736 27.1246C43.0885 27.8113 44.4244 30.3262 44.4244 31.1324C44.4244 31.9387 45.5049 31.7207 45.8377 32.0957C46.1705 32.4684 45.8377 33.5817 45.8377 33.5817H48.7041C48.7041 33.5817 48.076 32.5082 47.4736 31.9574C46.8713 31.4066 46.4775 30.9356 46.0346 30.1504C45.5893 29.3652 44.3588 28.5262 44.1479 27.5324C43.9393 26.5363 43.3369 25.5941 42.4979 24.5465C41.6588 23.4988 41.2932 22.3199 39.8799 19.6504C40.515 18.9613 40.583 17.6652 40.4846 16.5121C40.2432 13.6878 41.1361 10.866 43.0182 8.74485C43.3439 8.37688 43.6604 8.0722 43.9486 7.84954C43.9486 7.84954 44.326 9.75033 46.9229 9.35189C48.6174 9.09173 50.4666 11.405 50.4666 11.405C50.4666 11.405 52.2127 10.6691 51.9784 8.97454L45.9479 2.8128L45.9502 2.81515Z" fill="#0F2C3A"/>
<path d="M34.3018 6.60951C38.7338 1.64543 42.7768 2.31574 42.7768 2.31574C41.3495 1.02668 36.3221 0.236829 32.9869 5.31106C31.7916 7.12982 29.9893 10.022 29.9893 10.022C31.0791 9.42905 33.0666 7.98998 34.2994 6.60951H34.3018Z" fill="#0F2C3A"/>
</svg>
